<svg width="23" height="26" viewBox="0 0 23 26" fill="none" xmlns="http://www.w3.org/2000/svg">
<path d="M1.50195 6.4H3.70195M3.70195 6.4H21.302M3.70195 6.4V21.8C3.70195 22.3835 3.93374 22.9431 4.34632 23.3556C4.7589 23.7682 5.31848 24 5.90195 24H16.902C17.4854 24 18.045 23.7682 18.4576 23.3556C18.8702 22.9431 19.102 22.3835 19.102 21.8V6.4M7.00195 6.4V4.2C7.00195 3.61652 7.23374 3.05695 7.64632 2.64437C8.0589 2.23178 8.61848 2 9.20195 2H13.602C14.1854 2 14.745 2.23178 15.1576 2.64437C15.5702 3.05695 15.802 3.61652 15.802 4.2V6.4M9.20195 11.9V18.5M13.602 11.9V18.5" stroke="#5795FF" stroke-width="2.2" stroke-linecap="round" stroke-linejoin="round"/>
</svg>
